<svg data-v-fde0c5aa="" xmlns="http://www.w3.org/2000/svg" viewBox="0 0 300 300" class="iconAbove"><!----><defs data-v-fde0c5aa=""><!----></defs><rect data-v-fde0c5aa="" fill="#EAEDF9" x="0" y="0" width="300px" height="300px" class="logo-background-square"></rect><defs data-v-fde0c5aa=""><!----></defs><g data-v-fde0c5aa="" id="429c83bf-11ad-49a3-a8d3-096326e93b22" fill="#202A4F" transform="matrix(4.520166873931885,0,0,4.520166873931885,14.892211466932139,164.2885966516747)"><path d="M1.13 4.05L1.13 13.73L2.56 13.73L2.56 6.66L7.28 13.73L8.61 13.73L8.61 4.05L7.18 4.05L7.18 11.19L2.56 4.05ZM13.54 6.15C11.70 6.15 10.40 7.49 10.40 10.02C10.40 12.57 11.69 13.92 13.54 13.92C15.36 13.92 16.66 12.57 16.66 10.02C16.66 7.49 15.34 6.15 13.54 6.15ZM13.54 7.38C14.63 7.38 15.40 8.29 15.40 10.04C15.40 11.77 14.63 12.68 13.54 12.68C12.42 12.68 11.68 11.77 11.68 10.04C11.68 8.29 12.43 7.38 13.54 7.38ZM17.65 6.33L17.65 7.42L18.49 7.42L18.49 11.91C18.49 13.19 19.25 13.80 20.16 13.80C20.69 13.80 21.27 13.59 21.53 13.29L21.76 12.07C21.42 12.39 21.08 12.52 20.69 12.52C20.13 12.52 19.82 12.21 19.82 11.62L19.82 7.42L21.71 7.42L21.71 6.33L19.82 6.33L19.82 3.89L18.49 4.33L18.49 6.33ZM29.04 10.49C29.05 10.33 29.06 10.18 29.06 10.00C29.06 7.52 27.75 6.15 25.93 6.15C24.11 6.15 22.81 7.52 22.81 10.00C22.81 12.60 24.25 13.92 26.01 13.92C27.34 13.92 28.17 13.17 28.57 12.61L27.69 11.84C27.36 12.33 26.80 12.71 26.07 12.71C25.09 12.71 24.21 12.03 24.05 10.49ZM25.94 7.35C26.94 7.35 27.66 8.08 27.82 9.49L24.05 9.49C24.19 8.12 24.92 7.35 25.94 7.35ZM31.00 4.05L31.00 13.73L32.42 13.73L32.42 6.66L37.14 13.73L38.47 13.73L38.47 4.05L37.04 4.05L37.04 11.19L32.42 4.05ZM44.97 8.57L44.97 9.80L47.17 9.80C47.12 11.66 46.13 12.60 44.67 12.60C42.94 12.60 41.78 11.34 41.78 8.90C41.78 6.45 42.94 5.19 44.67 5.19C45.88 5.19 46.65 5.78 47.18 6.79L48.22 6.01C47.60 4.76 46.47 3.86 44.69 3.86C42.18 3.86 40.35 5.63 40.35 8.92C40.35 12.19 42.17 13.92 44.67 13.92C47.14 13.92 48.54 12.22 48.54 9.70L48.54 8.57ZM54.42 3.86C51.97 3.86 50.22 5.60 50.22 8.90C50.22 12.19 51.97 13.92 54.42 13.92C56.90 13.92 58.65 12.19 58.65 8.90C58.65 5.60 56.90 3.86 54.42 3.86ZM54.42 5.19C56.08 5.19 57.23 6.45 57.23 8.90C57.23 11.34 56.08 12.60 54.42 12.60C52.77 12.60 51.65 11.34 51.65 8.90C51.65 6.45 52.77 5.19 54.42 5.19Z"></path></g><defs data-v-fde0c5aa=""><linearGradient data-v-fde0c5aa="" gradientTransform="rotate(25)" id="8df297e8-e92e-4eb4-ae6b-8b281109b74f" x1="0%" y1="0%" x2="100%" y2="0%"><stop data-v-fde0c5aa="" offset="0%" stop-color="#395ECA" stop-opacity="1"></stop><stop data-v-fde0c5aa="" offset="100%" stop-color="#848BD8" stop-opacity="1"></stop></linearGradient></defs><g data-v-fde0c5aa="" id="905d8aae-f36a-4b8f-9642-2e03f1f204d0" stroke="none" fill="url(#8df297e8-e92e-4eb4-ae6b-8b281109b74f)" transform="matrix(3.900740146636963,0,0,3.900740146636963,87.58815596229303,55.84976453679022)"><path d="M12.289 5.343v19.9L1 13.954V5.343h11.289m1-1H0v10.026l13.289 13.289V4.343zM31 5.343v8.612L19.711 25.243v-19.9H31m1-1H18.711v23.315L32 14.369V4.343z"></path></g><!----></svg>